<svg xmlns="http://www.w3.org/2000/svg" viewBox="0 0 400 300">
  <!-- モックトゥ シルエット -->
  <rect width="400" height="300" fill="#1A1612"/>
  <g transform="translate(100, 30)">
    <!-- ブーツ本体 -->
    <path d="M50 240 L50 100 Q50 60 80 50 L90 47 L90 30 Q90 20 100 20 L120 20 Q130 20 130 30 L130 47 L140 50 Q170 60 170 100 L170 240 Z" fill="#3B3430" stroke="#B8860B" stroke-width="1.5"/>
    <!-- ウェッジソール（モックトゥ特有） -->
    <path d="M40 238 L180 238 L175 255 L45 255 Z" fill="#D4A574" stroke="#B8860B" stroke-width="1"/>
    <!-- モックトゥステッチ（U字型） -->
    <path d="M55 130 Q55 75 110 70 Q165 75 165 130" fill="none" stroke="#B8860B" stroke-width="1.5" opacity="0.7"/>
    <!-- レースホール -->
    <circle cx="95" cy="55" r="3" fill="#B8860B" opacity="0.5"/>
    <circle cx="125" cy="55" r="3" fill="#B8860B" opacity="0.5"/>
    <circle cx="95" cy="70" r="3" fill="#B8860B" opacity="0.5"/>
    <circle cx="125" cy="70" r="3" fill="#B8860B" opacity="0.5"/>
    <circle cx="95" cy="85" r="3" fill="#B8860B" opacity="0.5"/>
    <circle cx="125" cy="85" r="3" fill="#B8860B" opacity="0.5"/>
  </g>
  <text x="200" y="285" text-anchor="middle" font-family="serif" font-size="12" fill="#666" letter-spacing="0.1em">MOC TOE</text>
</svg>
